<svg xmlns="http://www.w3.org/2000/svg" xmlns:xlink="http://www.w3.org/1999/xlink" width="500" zoomAndPan="magnify" viewBox="0 0 375 374.999991" height="500" preserveAspectRatio="xMidYMid meet" version="1.0"><defs><clipPath id="373850a7df"><path d="M 7 17 L 366 17 L 366 361.703125 L 7 361.703125 Z M 7 17 " clip-rule="nonzero"/></clipPath></defs><g clip-path="url(#373850a7df)"><path fill="#ffffff" d="M 363.964844 104.128906 C 356.035156 61.929688 322.277344 27.914062 280.078125 19.476562 C 246.191406 12.699219 211.667969 22.160156 186.859375 44.28125 C 162.054688 22.160156 127.527344 12.699219 93.640625 19.476562 C 51.445312 27.914062 17.6875 61.929688 9.757812 104.128906 C 4.898438 130.339844 9.246094 156.9375 22.289062 178.933594 C 25.230469 184.046875 35.589844 196.578125 38.914062 200.671875 L 177.269531 357.183594 C 179.699219 359.871094 183.152344 361.53125 186.859375 361.53125 C 190.570312 361.53125 194.019531 360 196.449219 357.183594 L 335.0625 200.285156 C 338.132812 196.578125 348.492188 183.917969 351.429688 178.933594 C 364.347656 156.9375 368.820312 130.339844 363.964844 104.128906 Z M 329.308594 166.015625 C 328.03125 168.191406 321 177.140625 315.628906 183.792969 L 186.859375 329.566406 L 58.476562 184.175781 C 52.722656 177.269531 45.691406 168.320312 44.410156 166.015625 C 34.566406 149.265625 31.242188 128.933594 34.949219 108.859375 C 40.960938 76.761719 66.535156 50.933594 98.628906 44.539062 C 104.382812 43.386719 110.136719 42.875 115.765625 42.875 C 139.421875 42.875 161.671875 52.722656 177.140625 70.878906 C 182 76.507812 191.71875 76.507812 196.578125 70.878906 C 215.757812 48.503906 245.171875 38.65625 275.09375 44.539062 C 307.1875 50.933594 332.761719 76.761719 338.773438 108.859375 C 342.609375 128.933594 339.15625 149.265625 329.308594 166.015625 Z M 329.308594 166.015625 " fill-opacity="1" fill-rule="nonzero"/></g></svg>